<svg width="18" height="18" viewBox="0 0 21 20" fill="none" xmlns="http://www.w3.org/2000/svg"><path d="M19.61 9.438l-8.51 8.026C10.058 18.448 8.644 19 7.17 19c-1.475 0-2.889-.552-3.931-1.536-1.043-.983-1.629-2.316-1.629-3.707 0-1.39.586-2.724 1.629-3.707l8.51-8.026A3.822 3.822 0 0114.369 1c.983 0 1.926.368 2.62 1.024a3.398 3.398 0 011.086 2.471c0 .927-.39 1.816-1.085 2.472l-8.52 8.026a1.911 1.911 0 01-1.31.512c-.491 0-.963-.184-1.31-.512a1.699 1.699 0 01-.543-1.236c0-.463.195-.908.543-1.236l7.862-7.406" stroke="#3a3b40" stroke-width="1.8" stroke-linecap="round" stroke-linejoin="round"></path></svg>