<svg width="14" height="14" fill="none" xmlns="http://www.w3.org/2000/svg"><path d="M7 0C5.338 0 3.73.607 2.464 1.71A7.224 7.224 0 00.09 6.029a7.33 7.33 0 00.92 4.864 7.035 7.035 0 003.776 3.094c.35.063.482-.152.482-.34 0-.171-.01-.736-.01-1.337-1.758.332-2.213-.44-2.353-.844a2.608 2.608 0 00-.717-1.013c-.245-.135-.595-.467-.01-.476.225.025.44.105.627.233s.341.3.45.503c.096.176.224.331.379.457a1.482 1.482 0 001.103.32 1.47 1.47 0 00.557-.185c.03-.365.189-.706.446-.96-1.558-.18-3.185-.799-3.185-3.544a2.834 2.834 0 01.717-1.929 2.64 2.64 0 01.07-1.901s.587-.189 1.925.735a6.442 6.442 0 013.5 0c1.34-.933 1.925-.735 1.925-.735.26.601.284 1.282.07 1.901.473.525.73 1.216.718 1.93 0 2.753-1.636 3.364-3.194 3.543a1.74 1.74 0 01.473 1.328c0 .96-.01 1.731-.01 1.973 0 .189.132.413.482.341a7.04 7.04 0 003.765-3.101 7.333 7.333 0 00.912-4.863 7.227 7.227 0 00-2.375-4.312A6.902 6.902 0 007 0z" fill="#E5007B"></path></svg>