<svg width="24" height="24" fill="none" xmlns="http://www.w3.org/2000/svg"><mask id="pen-sm_svg__a" fill="#fff"><path d="M9.621 16.379l-3.535-3.536L16.778 2.151a1 1 0 011.414 0l2.122 2.121a1 1 0 010 1.414L9.62 16.38z"></path></mask><path d="M9.621 16.379l-3.535-3.536L16.778 2.151a1 1 0 011.414 0l2.122 2.121a1 1 0 010 1.414L9.62 16.38z" stroke="#3a3b40" stroke-width="3.6" mask="url(#pen-sm_svg__a)"></path><path d="M4.622 18.142a.25.25 0 01-.3-.3l.97-4.206 3.536 3.536-4.206.97z" fill="#3a3b40"></path><path transform="matrix(.99999 .00502 .00502 .99999 2 21)" stroke="#3a3b40" stroke-width="1.8" stroke-linecap="round" d="M.9-.9h18.2"></path><path stroke="#3a3b40" stroke-width="1.8" d="M15.636 4.364l2.122 2.121"></path></svg>