<svg width="12" height="12" fill="none" xmlns="http://www.w3.org/2000/svg"><path d="M11.113 0H.887a.88.88 0 00-.816.526A.866.866 0 000 .858v10.284a.866.866 0 00.551.796c.107.043.221.063.336.062h10.226a.88.88 0 00.816-.526.867.867 0 00.071-.332V.858a.867.867 0 00-.551-.796.88.88 0 00-.336-.062zM3.64 10.044H1.829v-5.4h1.81v5.4zm-.906-6.156a.945.945 0 01-.665-.274.933.933 0 01.665-1.598.953.953 0 01.972.551.937.937 0 01-.578 1.283.953.953 0 01-.394.038zm7.437 6.156h-1.81V7.146c0-.726-.26-1.2-.918-1.2a1 1 0 00-.93.654c-.047.141-.068.29-.06.438v3H4.642v-5.4h1.81V5.4a1.806 1.806 0 011.637-.9c1.207 0 2.082.774 2.082 2.436v3.108z" fill="#E5007B"></path></svg>