<svg width="40" height="40" fill="none" xmlns="http://www.w3.org/2000/svg" class="style__icon-profileImg___LH69T"><rect width="40" height="40" rx="20" fill="#6F7377"></rect><path d="M30 25.222c0 .472-.192.924-.532 1.257a1.84 1.84 0 01-1.286.521H11.818a1.84 1.84 0 01-1.285-.52A1.758 1.758 0 0110 25.221v-9.778c0-.471.192-.923.533-1.257a1.84 1.84 0 011.285-.52h3.636L17.273 11h5.454l1.819 2.667h3.636c.482 0 .945.187 1.286.52.34.334.532.786.532 1.257v9.778z" stroke="#fff" stroke-width="1.8" stroke-linecap="round" stroke-linejoin="round"></path><path d="M20 24a4 4 0 100-8 4 4 0 000 8z" stroke="#fff" stroke-width="1.8" stroke-linecap="round" stroke-linejoin="round"></path></svg>